# xmcd
#
# Track frame offsets:
#	150
#	18950
#	41853
#	64853
#	79430
#	98983
#	120851
#	144310
#	169506
#	188557
#	218193
#	241132
#
# Disc length: 3505 seconds
#
# Revision: 4277600086
# Processed by: cddbd v1.5.2PL0 Copyright (c) Steve Scherf et al.
# Submitted via: EZCDAudioConverter 8.0.2.1
#
DISCID=9a0daf0c
DTITLE=Đặng Minh Thông, Y Phương - Tình Khúc Yêu Cầu. Vol 02. Mùa Đông Của Anh
DYEAR=2010
DGENRE=World Pop
TTITLE0=Đặng Minh Thông - Linh hồn tượng đá
TTITLE1=Đặng Minh Thông - Dấu chân địa đàng
TTITLE2=Đặng Minh Thông, Y Phương - Khi người yêu tôi khóc
TTITLE3=Đặng Minh Thông - Sầu đông
TTITLE4=Y Phương - Cát bụi
TTITLE5=Đặng Minh Thông - Sóng về đâu
TTITLE6=Đặng Minh Thông, Y Phương - Mùa Đông Của Anh
TTITLE7=Đặng Minh Thông - Tình nhớ
TTITLE8=Đặng Minh Thông - Những tâm hồn cô đơn
TTITLE9=Đặng Minh Thông, Y Phương - Ướt mi
TTITLE10=Đặng Minh Thông - Thôi
TTITLE11=Đặng Minh Thông - Yêu em dật dờ
EXTD=
EXTT0=
EXTT1=
EXTT2=
EXTT3=
EXTT4=
EXTT5=
EXTT6=
EXTT7=
EXTT8=
EXTT9=
EXTT10=
EXTT11=
PLAYORDER=
